<?xml version="1.0" encoding="UTF-8"?>
<svg id="Layer_1" data-name="Layer 1" xmlns="http://www.w3.org/2000/svg" viewBox="0 0 597.64 672.11">
  <defs>
    <style>
      .cls-1 {
        fill: #000;
      }

      .cls-1, .cls-2 {
        stroke-width: 0px;
      }

      .cls-2 {
        fill: #fff;
      }
    </style>
  </defs>
  <path class="cls-2" d="M429.69,670.54c0,.28,0,.56,0,.84,8.1,0,16.2.09,24.29-.02,10.48-.15,20.46-1.74,27.77-10.43,1.35-1.61,3.3-2.78,4.4-4.51,2.24-3.56,4.12-7.35,6.09-11.07.62-1.18,1.01-2.48,1.57-3.69,1.68-3.6,3.31-7.23,5.13-10.76,1.44-2.79,3.59-5.28,4.66-8.18,3.11-8.45,6.27-16.92,8.6-25.61,2.3-8.57,4.08-17.35,5.19-26.15.81-6.37-.44-12.99.3-19.37,1.02-8.79.47-10.37,10.27-10.45,2.29-.02,4.6.1,6.88-.04,3.49-.22,6.15-1.62,8.4-4.63,5.59-7.5,11.65-14.64,17.46-21.98,5.83-7.36,11.61-14.76,17.37-22.17.48-.62.79-1.42,1.05-2.18,2.02-5.8,3.43-11.91,6.14-17.37,5.75-11.6,7.41-24.17,9.79-36.58.65-3.4-.02-7.04.57-10.45,3.17-18.2,2.58-36.24-1.71-54.19-1.28-5.34-2.18-10.78-3.57-16.09-2.2-8.4-4.69-16.72-7.01-25.08-1.18-4.25-3.06-8.5-3.18-12.79-.17-5.84.78-11.77,1.7-17.59,1.11-7,3.26-13.87,3.93-20.89.74-7.8,1.83-15.77-1.63-23.44-.94-2.08-.88-4.74-.82-7.13.17-6.85.69-13.7.85-20.55.21-9.07-2.41-17.3-7.76-24.67-.7-.97-1.43-2.04-1.73-3.17-2.23-8.6-7.27-16.5-6.31-25.92.16-1.57-.89-3.3-1.53-4.9-1.24-3.07-2.69-6.06-3.86-9.16-2.59-6.88-5.03-13.83-7.61-20.71-.59-1.57-1.3-3.18-2.32-4.48-1.65-2.1-3.88-3.77-5.38-5.96-3.17-4.59-5.18-10.04-10.23-13.2-.43-.27-.78-.77-1-1.24-2.57-5.55-5.33-11.02-7.57-16.7-2.15-5.42-12.13-9.44-17.62-7.18-5.07,2.09-10.5,3.25-14.25,7.82-.78.95-2.75.87-4.12,1.4-5.1,1.97-10.31,3.74-15.23,6.08-5.74,2.73-11.24,5.99-16.84,9.02-.35.19-.74.34-1.13.45-4.6,1.33-9.48,2.14-12.08,6.97-.21.39-.89.57-1.38.76-6.11,2.4-13.04,2.92-17.86,8.33-1.08,1.22-3.46,1.31-5.25,1.87-1.4.45-2.85.75-4.23,1.26-7.73,2.84-17.39-3.07-18.83-11.13-.67-3.74-2.51-7.26-3.68-10.92-1.25-3.91-3.09-7.83-3.34-11.83-.58-9.35.68-18.82-3.45-27.81-1.41-3.07-2.45-6.05-6.23-6.45-3.82-.41-7.07.28-9.05,4.32-2.47,5.04-7.4,8.13-12.13,9.88-4.3,1.59-9.9,1.89-13.77-2.86-.81-.99-2.53-1.65-3.88-1.72-6.99-.4-13.99-.54-20.99-.84-1.31-.06-2.72-.13-3.88-.65-3.96-1.78-7.79-3.86-11.75-5.65-3.87-1.75-7.79-3.04-10.63-6.75-2.45-3.21-5.96-5.61-9-8.37-5.86-5.33-14.44-8.25-15.74-17.66-.05-.33-.61-.55-.78-.89-1.79-3.74-4.22-7.35-5.15-11.3-1.21-5.17-1.28-10.61-1.74-15.94-.35-4.01-2.11-7.3-6.15-7.87-3.34-.47-6.98,0-10.28.86-1.64.42-3.7,2.43-4.04,4.05-1.1,5.18-5.36,7.94-8.54,11.13-5.45,5.47-11.49,10.28-14.39,17.76-1.08,2.78-1.49,6.51-3.53,8.09-4.26,3.3-6.36,7.61-7.98,12.26-3.73,10.75-12.05,18-19.39,26-4.47,4.88-9.19,9.53-13.82,14.26-1.31,1.33-2.74,2.55-4.07,3.86-6.15,6.06-12.42,12-18.35,18.27-2.17,2.29-4.14,3.93-7.48,3.9-2.79-.02-5.61.5-8.37,1.02-5.22.98-9.7-.47-12.85-4.55-6.93-8.98-16.38-12.58-27.22-13.4-3.82-.29-7.67-.19-11.51-.11-1.13.02-2.45.31-3.32.96-2.48,1.87-4.8,3.95-7.11,6.04-.78.7-1.52,1.57-1.94,2.52-3.43,7.77-6.61,15.65-10.21,23.33-3.84,8.21-8.41,16.09-11.97,24.4-2.45,5.72-3.82,11.91-5.48,17.94-2.08,7.57-3.81,15.23-6.02,22.76-.69,2.34-3.06,4.23-3.58,6.57-2.43,10.9-4.47,21.88-6.68,32.83-.15.76-.61,1.45-.82,2.2-.78,2.73-2.17,5.48-2.11,8.19.08,3.8,1.02,7.63,2.06,11.32.64,2.27.32,3.7-1.38,5.31-2.39,2.27-5.06,4.55-6.59,7.37-3.16,5.83-4.46,12.14-4.09,18.96.49,8.87.19,17.78.08,26.67-.03,2.52.2,5.55-1.06,7.42-2.51,3.71-2.06,7.59-2.35,11.56-.39,5.32-.23,10.94-2,15.83-3.18,8.81-2.8,17.49-1.96,26.47.28,2.95-1.04,6.12-1.91,9.1-.76,2.58-2.4,4.96-2.82,7.57-1.18,7.23-1.05,14.8-3.15,21.71-1.39,4.55-2.76,8.82-2.42,13.54.15,2.12.6,4.21.85,6.33.62,5.29,1.19,10.6,1.79,15.89.66,5.84,2.2,11.73,1.8,17.49-.66,9.67,2.55,18.42,5.42,27.14,2.22,6.74,6.47,12.79,9.56,19.27,4.58,9.6,10.92,17.91,18,25.75,3.19,3.53,6.29,7.17,9.22,10.92,1.28,1.64,1.72,3.97,3.07,5.52,4.83,5.54,10.09,10.75,11.3,18.49.1.63.63,1.19.87,1.81,2.19,5.68,6.42,9.84,10.68,13.9,2.54,2.41,5.27,4.99,8.41,6.31,3.29,1.39,4.69,3.47,5.69,6.54.56,1.7,1.68,3.28,2.79,4.73,2.49,3.25,5.14,6.38,7.71,9.57.84,1.04,1.38,2.67,2.44,3.11,5.02,2.1,10.11,4.09,15.3,5.72,8.02,2.51,16.54,3.83,24.12,7.25,7.57,3.41,15.05,5.88,23.3,6.21,1.4.06,2.8.56,4.16.98,2.45.75,4.83,1.78,7.32,2.33,2.33.51,4.84.26,7.14.85,9.99,2.57,19.83,5.87,29.93,7.85,8.49,1.66,17.26,1.9,25.92,2.69,6.54.6,13.08,1.31,19.64,1.57,5.5.22,11.17.6,16.48-.48,5.19-1.06,9.72-.7,14.29,1.59,11.44,5.73,23.88,8.03,36.38,8.53,12.14.48,24.35-1.27,36.54-1.41,23.17-.26,46.35-.08,69.53-.08Z"/>
  <path class="cls-1" d="M429.69,670.54c-23.18,0-46.36-.19-69.53.08-12.19.14-24.4,1.89-36.54,1.41-12.5-.5-24.93-2.8-36.38-8.53-4.57-2.29-9.1-2.64-14.29-1.59-5.31,1.08-10.98.69-16.48.48-6.56-.26-13.1-.96-19.64-1.57-8.65-.8-17.43-1.03-25.92-2.69-10.1-1.98-19.94-5.28-29.93-7.85-2.3-.59-4.81-.33-7.14-.85-2.49-.55-4.87-1.58-7.32-2.33-1.36-.42-2.76-.92-4.16-.98-8.25-.34-15.73-2.8-23.3-6.21-7.59-3.42-16.1-4.74-24.12-7.25-5.19-1.62-10.28-3.62-15.3-5.72-1.06-.44-1.6-2.07-2.44-3.11-2.56-3.19-5.22-6.32-7.71-9.57-1.11-1.45-2.24-3.03-2.79-4.73-1-3.06-2.4-5.15-5.69-6.54-3.14-1.33-5.87-3.9-8.41-6.31-4.26-4.05-8.49-8.22-10.68-13.9-.24-.62-.77-1.18-.87-1.81-1.22-7.74-6.47-12.95-11.3-18.49-1.35-1.55-1.79-3.88-3.07-5.52-2.93-3.75-6.02-7.39-9.22-10.92-7.08-7.84-13.42-16.15-18-25.75-3.09-6.48-7.34-12.53-9.56-19.27-2.88-8.72-6.08-17.47-5.42-27.14.39-5.76-1.14-11.66-1.8-17.49-.6-5.3-1.17-10.6-1.79-15.89-.25-2.11-.7-4.21-.85-6.33-.34-4.72,1.03-8.99,2.42-13.54,2.11-6.91,1.98-14.48,3.15-21.71.42-2.6,2.06-4.99,2.82-7.57.88-2.98,2.19-6.14,1.91-9.1-.84-8.98-1.22-17.66,1.96-26.47,1.76-4.89,1.6-10.51,2-15.83.29-3.97-.15-7.84,2.35-11.56,1.26-1.87,1.03-4.91,1.06-7.42.11-8.89.41-17.81-.08-26.67-.37-6.83.92-13.14,4.09-18.96,1.53-2.82,4.2-5.1,6.59-7.37,1.7-1.61,2.01-3.04,1.38-5.31-1.03-3.69-1.97-7.53-2.06-11.32-.06-2.72,1.33-5.47,2.11-8.19.21-.75.67-1.44.82-2.2,2.21-10.95,4.25-21.93,6.68-32.83.52-2.34,2.89-4.23,3.58-6.57,2.21-7.53,3.94-15.19,6.02-22.76,1.66-6.03,3.04-12.22,5.48-17.94,3.56-8.32,8.13-16.2,11.97-24.4,3.6-7.69,6.78-15.57,10.21-23.33.42-.94,1.16-1.81,1.94-2.52,2.31-2.08,4.63-4.17,7.11-6.04.87-.65,2.19-.94,3.32-.96,3.84-.08,7.69-.18,11.51.11,10.83.82,20.28,4.42,27.22,13.4,3.15,4.08,7.63,5.54,12.85,4.55,2.76-.52,5.58-1.04,8.37-1.02,3.34.03,5.31-1.61,7.48-3.9,5.93-6.27,12.2-12.21,18.35-18.27,1.33-1.31,2.76-2.53,4.07-3.86,4.63-4.73,9.35-9.38,13.82-14.26,7.33-8,15.65-15.25,19.39-26,1.62-4.66,3.72-8.97,7.98-12.26,2.04-1.58,2.45-5.31,3.53-8.09,2.9-7.48,8.94-12.29,14.39-17.76,3.19-3.2,7.45-5.95,8.54-11.13.34-1.62,2.4-3.63,4.04-4.05,3.3-.85,6.94-1.33,10.28-.86,4.04.57,5.8,3.85,6.15,7.87.46,5.33.53,10.78,1.74,15.94.93,3.95,3.36,7.55,5.15,11.3.17.35.73.57.78.89,1.3,9.41,9.88,12.32,15.74,17.66,3.04,2.76,6.55,5.16,9,8.37,2.84,3.71,6.76,5,10.63,6.75,3.96,1.79,7.79,3.87,11.75,5.65,1.16.52,2.57.6,3.88.65,7,.3,14,.44,20.99.84,1.35.08,3.07.73,3.88,1.72,3.87,4.76,9.47,4.45,13.77,2.86,4.73-1.75,9.66-4.84,12.13-9.88,1.98-4.04,5.24-4.73,9.05-4.32,3.78.41,4.82,3.38,6.23,6.45,4.13,8.99,2.87,18.45,3.45,27.81.25,4,2.09,7.92,3.34,11.83,1.17,3.66,3.01,7.18,3.68,10.92,1.43,8.06,11.09,13.98,18.83,11.13,1.38-.51,2.83-.81,4.23-1.26,1.79-.57,4.16-.66,5.25-1.87,4.82-5.41,11.75-5.92,17.86-8.33.49-.19,1.17-.37,1.38-.76,2.6-4.83,7.48-5.64,12.08-6.97.39-.11.77-.26,1.13-.45,5.61-3.02,11.1-6.28,16.84-9.02,4.93-2.34,10.13-4.11,15.23-6.08,1.37-.53,3.34-.45,4.12-1.4,3.76-4.57,9.19-5.72,14.25-7.82,5.48-2.27,15.47,1.75,17.62,7.18,2.25,5.68,5.01,11.15,7.57,16.7.22.47.57.97,1,1.24,5.04,3.15,7.06,8.6,10.23,13.2,1.51,2.18,3.73,3.86,5.38,5.96,1.02,1.3,1.73,2.91,2.32,4.48,2.58,6.89,5.02,13.83,7.61,20.71,1.17,3.1,2.62,6.09,3.86,9.16.64,1.6,1.69,3.33,1.53,4.9-.95,9.42,4.09,17.32,6.31,25.92.29,1.13,1.02,2.2,1.73,3.17,5.35,7.36,7.98,15.6,7.76,24.67-.16,6.85-.68,13.7-.85,20.55-.06,2.38-.12,5.04.82,7.13,3.46,7.67,2.37,15.64,1.63,23.44-.67,7.02-2.82,13.89-3.93,20.89-.92,5.82-1.87,11.74-1.7,17.59.13,4.29,2,8.55,3.18,12.79,2.32,8.37,4.81,16.69,7.01,25.08,1.39,5.31,2.29,10.75,3.57,16.09,4.3,17.95,4.88,35.99,1.71,54.19-.59,3.41.08,7.06-.57,10.45-2.37,12.41-4.04,24.98-9.79,36.58-2.71,5.46-4.12,11.57-6.14,17.37-.26.76-.57,1.55-1.05,2.18-5.77,7.41-11.54,14.82-17.37,22.17-5.81,7.33-11.87,14.48-17.46,21.98-2.25,3.02-4.91,4.41-8.4,4.63-2.29.15-4.59.03-6.88.04-9.8.08-9.25,1.66-10.27,10.45-.74,6.38.51,13-.3,19.37-1.11,8.8-2.89,17.58-5.19,26.15-2.33,8.68-5.49,17.16-8.6,25.61-1.07,2.9-3.22,5.39-4.66,8.18-1.83,3.53-3.45,7.16-5.13,10.76-.57,1.21-.95,2.51-1.57,3.69-1.97,3.73-3.85,7.52-6.09,11.07-1.1,1.74-3.05,2.91-4.4,4.51-7.31,8.68-17.29,10.28-27.77,10.43-8.1.11-16.2.02-24.29.02,0-.28,0-.56,0-.84ZM33.46,265.73c-1.92,2.38-3.67,4.97-5.83,7.16-4.83,4.9-7.15,10.8-7.24,17.52-.15,10.64.06,21.3-.11,31.94-.05,3.3-.69,6.61-1.35,9.86-.39,1.9-1.74,3.64-1.97,5.53-.79,6.35-.29,13.03-2.09,19.04-2.54,8.46-2.85,16.68-1.76,25.27.39,3.11-.45,6.38-.83,9.56-.07.55-.54,1.22-1.03,1.52-2.92,1.84-3.03,4.67-3.3,7.73-.62,7.04-1.51,14.06-2.61,21.04-.42,2.66-2.56,5.2-2.48,7.75.24,7.87,1.15,15.73,1.86,23.58.79,8.79,1.49,17.59,2.56,26.34.4,3.33,1.69,6.56,2.6,9.83.21.75.67,1.46.76,2.22,1.09,9.21,4.34,17.5,10.24,24.73.93,1.13,1.74,2.39,2.4,3.7,2.96,5.91,4.68,12.65,11.22,16.09.38.2.45.94.76,1.35,3.27,4.18,6.56,8.35,9.86,12.51,1.63,2.04,3.4,3.97,4.95,6.07,2.66,3.6,5.23,7.27,7.78,10.95,1.33,1.92,3.32,3.8,3.67,5.92,1.85,11.1,10.34,17.75,16.73,25.81.43.54,1.39.72,2.14.94,4.72,1.4,8.56,3.57,9.12,9.17.1.96.92,1.93,1.6,2.72,2.41,2.79,5.57,5.16,7.23,8.32,3.59,6.84,10.69,7.67,16.56,10,7.71,3.07,16.22,4.04,24.09,6.77,8.99,3.11,17.54,7.58,27.46,6.99.58-.03,1.44.31,1.76.77,1.93,2.8,4.8,2.36,7.62,2.59,3.43.28,6.88.86,10.22,1.7,4.12,1.03,8.07,2.9,12.23,3.63,12.52,2.19,25.08,4.24,37.68,5.86,8.1,1.05,16.31,1.43,24.48,1.76,4.13.17,8.4.1,12.39-.82,5.24-1.2,10.17-.83,14.84,1.39,12.67,6.02,26.13,8.83,39.98,9.05,10.68.18,21.39-1.39,32.09-1.47,14.27-.11,28.54.61,42.81.73,17.41.14,34.84.37,52.24-.16,6.12-.18,12.18-2.45,18.24-3.86.85-.2,1.62-.92,2.31-1.53,5.75-5.08,9.64-11.53,13.31-18.13.9-1.63,1.83-3.24,2.64-4.91,1.85-3.79,2.95-8.2,5.62-11.26,3.28-3.76,4.22-8.15,5.75-12.46,2.33-6.58,4.55-13.19,6.86-19.78.61-1.75,1.63-3.4,2.01-5.19,2.66-12.61,4.74-25.33,3.34-38.23-.45-4.13,1.06-7.47,2.02-11.08.27-1.01,1.61-2.32,2.59-2.45,4.73-.62,9.53-.7,14.26-1.34,1.94-.26,4.35-.94,5.52-2.31,4.86-5.67,8.67-12.41,14.11-17.4,8.29-7.6,13.43-17.47,20.71-25.73,1.04-1.18,1.98-2.56,2.53-4.02,2.26-5.97,4.45-11.97,6.49-18.01,2.03-6.03,3.93-12.11,5.74-18.21.65-2.18.86-4.49,1.29-6.73.83-4.29,1.97-8.55,2.44-12.89.81-7.32.61-14.79,1.89-22.01,2.34-13.21-1.25-25.82-2.92-38.63-.41-3.17-1.15-6.32-1.96-9.42-2.18-8.25-4.52-16.45-6.71-24.7-1.37-5.17-2.55-10.4-3.89-15.59-.48-1.84-1.92-3.73-1.68-5.41,1.8-12.57,4.29-25.06,5.81-37.66.95-7.93,1.68-16.04-1.55-23.89-.92-2.24-.89-4.99-.83-7.49.2-7.93,1.27-15.89.73-23.76-.37-5.4-1.93-11.21-4.63-15.87-6.21-10.72-10.95-21.65-11.01-34.25,0-1.14-.55-2.32-1.01-3.41-1.29-3.05-2.77-6.02-3.98-9.1-2.91-7.44-5.68-14.93-8.57-22.37-.4-1.02-1.06-2-1.78-2.83-1.16-1.35-2.72-2.41-3.69-3.87-2.5-3.78-4.17-8.3-7.27-11.43-4.63-4.67-8.19-9.68-10.2-15.92-.97-3-2.29-5.94-3.85-8.68-.62-1.08-2.28-1.69-3.58-2.22-1.09-.44-2.37-.38-3.53-.67-6.23-1.57-11.55.5-16.66,3.86-2.74,1.8-5.65,3.38-8.6,4.82-4.86,2.38-9.8,4.58-14.72,6.83-1.31.6-2.66,1.1-4.01,1.62-2.06.79-4.2,1.41-6.18,2.38-2.6,1.27-5.03,2.87-7.6,4.19-2.92,1.49-7.2,2.06-8.61,4.39-2.86,4.76-7.13,4.91-11.45,5.88-1.9.43-3.87.93-5.56,1.86-3.1,1.7-5.81,4.23-9.05,5.51-4.18,1.65-8.75,3.45-13.08,3.3-6.78-.23-14.15-8.71-15.43-15.47-.59-3.09-2.16-5.99-3.16-9.02-1.37-4.13-3.6-8.27-3.72-12.46-.29-9.81.44-19.67-4.39-28.71-.83-1.54-2.49-3.61-3.84-3.66-1.69-.07-3.67,1.44-5.15,2.71-4.15,3.54-7.78,7.76-12.22,10.84-5,3.48-10.74-.34-16.16.31-.35.04-1.09-.55-1.14-.92-.58-4.3-3.9-3.74-6.8-3.88-4.26-.21-8.54-.62-12.79-.47-4.96.18-9.48-.43-13.89-3.07-3.61-2.17-7.82-3.32-11.66-5.13-1.91-.91-3.75-2.12-5.36-3.49-6.39-5.44-12.72-10.96-19.01-16.53-2.47-2.18-5-4.37-7.03-6.93-.94-1.18-.42-3.41-1.09-4.92-1.87-4.22-4.7-8.13-5.88-12.5-1.31-4.84-1.37-10.05-1.71-15.11-.29-4.3-2.41-7.25-6.04-7.74-5.14-.69-8.59,1.42-9.97,5.79-.4,1.28-1.4,2.43-2.31,3.48-1.39,1.6-2.97,3.04-4.44,4.58-2.42,2.54-4.46,5.59-7.27,7.56-6.02,4.23-8.53,10.33-10.49,16.93-.36,1.22-1.03,2.68-2.01,3.34-4.47,2.97-6.13,7.53-7.78,12.26-.91,2.62-2.19,5.27-3.92,7.41-5.21,6.42-10.61,12.69-16.15,18.82-3.26,3.62-6.94,6.87-10.4,10.3-3.99,3.96-7.97,7.93-11.94,11.9-2.13,2.13-4.22,4.31-6.37,6.42-1.78,1.75-3.94,3.22-5.38,5.21-3.29,4.54-7.03,7.7-13.12,6.79-1.27-.19-2.75.06-3.97.53-6.25,2.39-12.85.51-17.3-4.87-1.84-2.23-3.64-4.85-6.07-6.16-4.6-2.48-9.59-5.61-14.51-5.78-6.74-.23-14.6-3.69-20.36,3.41-.69.85-2.19,1.01-3.15,1.71-.94.68-1.99,1.5-2.45,2.51-3.69,8.07-7.13,16.24-10.89,24.28-2.98,6.38-6.65,12.45-9.36,18.93-2.81,6.72-5.09,13.68-7.13,20.68-2.01,6.89-3.11,14.04-5.19,20.9-1.56,5.14-4.07,9.98-6.07,14.99-.54,1.36-.9,2.82-1.17,4.26-1.37,7.42-2.63,14.86-4.05,22.26-.37,1.9-1.29,3.68-1.8,5.56-.45,1.68-.94,3.43-.91,5.14.03,1.68.69,3.36,1.06,5.04.73,3.34,1.44,6.69,1.96,9.09Z"/>
  <path class="cls-2" d="M33.46,265.73c-.52-2.39-1.23-5.74-1.96-9.09-.37-1.68-1.03-3.35-1.06-5.04-.03-1.71.46-3.46.91-5.14.5-1.88,1.43-3.66,1.8-5.56,1.43-7.41,2.68-14.85,4.05-22.26.27-1.44.62-2.9,1.17-4.26,2.01-5.01,4.52-9.85,6.07-14.99,2.08-6.86,3.18-14.01,5.19-20.9,2.04-7,4.32-13.96,7.13-20.68,2.71-6.48,6.38-12.55,9.36-18.93,3.76-8.03,7.2-16.21,10.89-24.28.46-1.01,1.51-1.83,2.45-2.51.96-.7,2.46-.86,3.15-1.71,5.76-7.1,13.62-3.64,20.36-3.41,4.92.17,9.91,3.3,14.51,5.78,2.43,1.31,4.23,3.93,6.07,6.16,4.45,5.39,11.05,7.26,17.3,4.87,1.22-.47,2.69-.72,3.97-.53,6.09.92,9.83-2.25,13.12-6.79,1.44-1.99,3.6-3.46,5.38-5.21,2.15-2.11,4.24-4.29,6.37-6.42,3.97-3.98,7.95-7.95,11.94-11.9,3.47-3.43,7.14-6.68,10.4-10.3,5.54-6.14,10.94-12.4,16.15-18.82,1.73-2.14,3.01-4.79,3.92-7.41,1.65-4.74,3.31-9.29,7.78-12.26.99-.66,1.65-2.11,2.01-3.34,1.96-6.61,4.47-12.7,10.49-16.93,2.81-1.97,4.86-5.02,7.27-7.56,1.46-1.54,3.04-2.98,4.44-4.58.91-1.05,1.9-2.2,2.31-3.48,1.38-4.37,4.83-6.47,9.97-5.79,3.63.48,5.75,3.44,6.04,7.74.34,5.06.4,10.27,1.71,15.11,1.19,4.37,4.01,8.29,5.88,12.5.67,1.52.16,3.74,1.09,4.92,2.03,2.56,4.56,4.74,7.03,6.93,6.29,5.56,12.61,11.09,19.01,16.53,1.62,1.37,3.45,2.59,5.36,3.49,3.84,1.82,8.05,2.97,11.66,5.13,4.41,2.64,8.93,3.25,13.89,3.07,4.25-.15,8.53.26,12.79.47,2.9.14,6.22-.42,6.8,3.88.05.37.79.96,1.14.92,5.41-.65,11.16,3.17,16.16-.31,4.44-3.09,8.07-7.31,12.22-10.84,1.48-1.26,3.46-2.77,5.15-2.71,1.35.05,3.02,2.12,3.84,3.66,4.83,9.04,4.1,18.9,4.39,28.71.12,4.19,2.35,8.33,3.72,12.46,1,3.03,2.57,5.93,3.16,9.02,1.28,6.76,8.65,15.24,15.43,15.47,4.34.15,8.91-1.65,13.08-3.3,3.23-1.27,5.95-3.81,9.05-5.51,1.69-.93,3.65-1.43,5.56-1.86,4.32-.97,8.59-1.12,11.45-5.88,1.4-2.34,5.69-2.9,8.61-4.39,2.57-1.32,5-2.92,7.6-4.19,1.98-.96,4.12-1.58,6.18-2.38,1.34-.52,2.7-1.02,4.01-1.62,4.92-2.25,9.87-4.45,14.72-6.83,2.95-1.44,5.86-3.02,8.6-4.82,5.11-3.36,10.43-5.43,16.66-3.86,1.16.29,2.44.23,3.53.67,1.3.53,2.96,1.14,3.58,2.22,1.57,2.74,2.88,5.68,3.85,8.68,2.02,6.24,5.58,11.25,10.2,15.92,3.1,3.14,4.77,7.66,7.27,11.43.97,1.46,2.52,2.52,3.69,3.87.72.84,1.38,1.81,1.78,2.83,2.89,7.44,5.66,14.93,8.57,22.37,1.2,3.08,2.69,6.05,3.98,9.1.46,1.09,1.01,2.27,1.01,3.41.06,12.59,4.8,23.53,11.01,34.25,2.7,4.66,4.25,10.47,4.63,15.87.55,7.86-.53,15.83-.73,23.76-.06,2.5-.09,5.25.83,7.49,3.23,7.85,2.5,15.96,1.55,23.89-1.51,12.6-4,25.09-5.81,37.66-.24,1.69,1.2,3.57,1.68,5.41,1.34,5.18,2.51,10.41,3.89,15.59,2.19,8.25,4.54,16.45,6.71,24.7.82,3.1,1.55,6.25,1.96,9.42,1.67,12.81,5.27,25.42,2.92,38.63-1.28,7.22-1.09,14.69-1.89,22.01-.48,4.33-1.62,8.59-2.44,12.89-.43,2.25-.65,4.55-1.29,6.73-1.81,6.1-3.7,12.18-5.74,18.21-2.04,6.05-4.23,12.05-6.49,18.01-.55,1.45-1.49,2.84-2.53,4.02-7.28,8.26-12.42,18.14-20.71,25.73-5.44,4.99-9.25,11.72-14.11,17.4-1.17,1.37-3.58,2.05-5.52,2.31-4.73.64-9.53.73-14.26,1.34-.98.13-2.33,1.44-2.59,2.45-.96,3.61-2.46,6.95-2.02,11.08,1.39,12.9-.68,25.62-3.34,38.23-.38,1.79-1.39,3.44-2.01,5.19-2.31,6.59-4.53,13.2-6.86,19.78-1.53,4.31-2.46,8.7-5.75,12.46-2.67,3.06-3.77,7.47-5.62,11.26-.81,1.67-1.74,3.28-2.64,4.91-3.67,6.61-7.56,13.05-13.31,18.13-.69.61-1.47,1.33-2.31,1.53-6.06,1.42-12.13,3.68-18.24,3.86-17.4.53-34.82.3-52.24.16-14.27-.12-28.55-.83-42.81-.73-10.7.08-21.4,1.64-32.09,1.47-13.85-.23-27.31-3.04-39.98-9.05-4.67-2.22-9.6-2.59-14.84-1.39-3.99.91-8.27.99-12.39.82-8.17-.33-16.38-.72-24.48-1.76-12.6-1.63-25.16-3.68-37.68-5.86-4.16-.73-8.1-2.6-12.23-3.63-3.34-.84-6.79-1.42-10.22-1.7-2.82-.23-5.69.21-7.62-2.59-.31-.46-1.17-.8-1.76-.77-9.92.59-18.47-3.87-27.46-6.99-7.87-2.73-16.39-3.7-24.09-6.77-5.87-2.34-12.97-3.16-16.56-10-1.66-3.16-4.82-5.53-7.23-8.32-.69-.79-1.51-1.77-1.6-2.72-.56-5.6-4.4-7.77-9.12-9.17-.75-.22-1.71-.4-2.14-.94-6.39-8.06-14.89-14.71-16.73-25.81-.35-2.12-2.34-4-3.67-5.92-2.55-3.68-5.12-7.35-7.78-10.95-1.55-2.1-3.32-4.03-4.95-6.07-3.31-4.15-6.59-8.33-9.86-12.51-.32-.41-.38-1.15-.76-1.35-6.53-3.44-8.26-10.19-11.22-16.09-.66-1.31-1.47-2.56-2.4-3.7-5.9-7.22-9.15-15.52-10.24-24.73-.09-.76-.55-1.46-.76-2.22-.91-3.27-2.2-6.5-2.6-9.83-1.06-8.75-1.76-17.55-2.56-26.34-.71-7.86-1.61-15.71-1.86-23.58-.08-2.55,2.06-5.09,2.48-7.75,1.1-6.98,1.99-14,2.61-21.04.27-3.06.39-5.89,3.3-7.73.48-.31.96-.97,1.03-1.52.38-3.18,1.22-6.46.83-9.56-1.09-8.59-.78-16.81,1.76-25.27,1.81-6.01,1.31-12.69,2.09-19.04.23-1.89,1.59-3.63,1.97-5.53.66-3.25,1.3-6.57,1.35-9.86.17-10.64-.04-21.29.11-31.94.1-6.72,2.42-12.62,7.24-17.52,2.16-2.19,3.92-4.78,5.83-7.16ZM318.76,383.51c.36.09.72.18,1.07.27-.21,7.1,2.76,10.77,9.93,11.54,4.27.46,8.71.81,12.91.17,5.45-.83,9.5,1.23,13.35,4.42,2.07,1.72,3.7,1.66,5.46-.52,2.8-3.48,5.35-7.21,7.96-10.7,4.81-6.43,5.24-13.17,5.6-20.33.05-1.04.05-2.39-.53-3.12-5.88-7.41-13.3-15.22-24.97-12.97-6.17,1.19-12.34,2.58-18.57,3.11-3.29.28-5.24,1.53-6.01,4.27-2.23,7.91-4.16,15.9-6.2,23.86ZM158.81,363.8c.05-11.34-4.91-17.35-14.84-19.62-2.46-.56-5.14-1.79-6.89-3.55-6.47-6.49-14.09-9.68-23.17-8.56-1.65.2-4.08,2.37-4.35,3.93-.82,4.82-.64,9.81-1.09,14.71-.37,3.96,1.42,5.95,4.9,7.62,3.94,1.89,7.25,4.62,5.9,10.09-.27,1.1,1.13,3.04,2.28,3.96,2.72,2.17,5.83,3.84,8.62,5.92,5.72,4.25,13.75,5.12,19.28-1.81.9-1.13,1.99-2.36,3.26-2.88,5-2.03,7.14-5.47,6.1-9.81Z"/>
  <path class="cls-1" d="M318.76,383.51c2.05-7.96,3.97-15.95,6.2-23.86.77-2.74,2.72-3.99,6.01-4.27,6.23-.53,12.41-1.92,18.57-3.11,11.67-2.25,19.09,5.56,24.97,12.97.58.73.58,2.08.53,3.12-.36,7.16-.79,13.9-5.6,20.33-2.61,3.49-5.16,7.22-7.96,10.7-1.76,2.18-3.38,2.23-5.46.52-3.85-3.19-7.9-5.25-13.35-4.42-4.2.64-8.64.29-12.91-.17-7.17-.76-10.14-4.44-9.93-11.54-.36-.09-.72-.18-1.07-.27ZM360,379.27c-1.16-.55-2.3-.81-3.06-1.5-5.54-5.03-12.45-4.72-19.08-4.45-2.85.12-7.22-.03-7.53,4.81-.12,1.86-.34,4,.41,5.56.95,1.98,2.81,4.94,4.35,4.99,6.24.19,12.67.1,18.69-1.32,2.48-.59,4.09-4.81,6.09-7.39.07-.09.05-.24.14-.7ZM365.66,371.43c-.63-5.44-4.14-8.03-7.41-10.19-6.63-4.38-13.7-1.05-20.55-.08-.73.1-1.76,2.14-1.63,3.14.12.88,1.72,2.25,2.61,2.2,3.02-.16,5.99-1.06,9.01-1.29,6.47-.49,12.04,2.12,17.96,6.21Z"/>
  <path class="cls-1" d="M158.81,363.8c1.04,4.34-1.1,7.78-6.1,9.81-1.27.52-2.36,1.75-3.26,2.88-5.52,6.93-13.56,6.06-19.28,1.81-2.8-2.08-5.91-3.75-8.62-5.92-1.15-.91-2.55-2.86-2.28-3.96,1.35-5.47-1.96-8.2-5.9-10.09-3.48-1.67-5.27-3.66-4.9-7.62.46-4.9.27-9.88,1.09-14.71.27-1.57,2.7-3.73,4.35-3.93,9.08-1.12,16.69,2.07,23.17,8.56,1.75,1.75,4.43,2.98,6.89,3.55,9.93,2.27,14.89,8.28,14.84,19.62ZM128.05,364.94c4.02,9.61,8.41,10.57,15.03,4.24.95-.91,2.1-1.63,3.22-2.32,5.23-3.22,6.25-5.29,5.15-10.38-.57-2.65-2.08-4.94-4.75-4.41-1.71.34-3,2.75-4.52,4.17-2.38,2.23-4.6,4.73-7.28,6.52-1.83,1.22-4.34,1.43-6.85,2.19ZM121.5,357.57c.27-.33.55-.65.82-.98,2.93-.37,5.86-.85,8.8-1.09,5.06-.43,6.12-2.19,3.29-6.38-.85-1.26-2.65-1.96-4.12-2.71-2.09-1.08-4.29-1.94-6.41-2.97-1.93-.94-3.74-2.13-5.73-2.89-.78-.29-2.36-.02-2.79.57-2.59,3.55-1.48,7.4.31,10.67,1.26,2.3,3.84,3.88,5.83,5.79Z"/>
  <path class="cls-2" d="M360,379.27c-.09.45-.08.61-.14.7-2,2.58-3.61,6.81-6.09,7.39-6.02,1.42-12.45,1.51-18.69,1.32-1.54-.05-3.39-3.01-4.35-4.99-.75-1.57-.53-3.7-.41-5.56.31-4.84,4.68-4.69,7.53-4.81,6.63-.27,13.54-.58,19.08,4.45.76.69,1.9.95,3.06,1.5Z"/>
  <path class="cls-2" d="M365.66,371.43c-5.92-4.09-11.49-6.7-17.96-6.21-3.02.23-6,1.13-9.01,1.29-.89.05-2.49-1.32-2.61-2.2-.14-1,.89-3.04,1.63-3.14,6.85-.97,13.93-4.31,20.55.08,3.27,2.16,6.78,4.75,7.41,10.19Z"/>
  <path class="cls-2" d="M128.05,364.94c2.51-.75,5.02-.96,6.85-2.19,2.68-1.79,4.9-4.29,7.28-6.52,1.52-1.43,2.81-3.83,4.52-4.17,2.67-.53,4.18,1.76,4.75,4.41,1.1,5.09.08,7.16-5.15,10.38-1.13.69-2.27,1.41-3.22,2.32-6.62,6.33-11.01,5.37-15.03-4.24Z"/>
  <path class="cls-2" d="M121.5,357.57c-1.99-1.9-4.57-3.48-5.83-5.79-1.79-3.27-2.9-7.12-.31-10.67.43-.59,2.01-.86,2.79-.57,1.99.75,3.81,1.95,5.73,2.89,2.12,1.03,4.32,1.89,6.41,2.97,1.47.76,3.27,1.45,4.12,2.71,2.83,4.19,1.77,5.95-3.29,6.38-2.94.25-5.87.72-8.8,1.09-.27.33-.55.65-.82.98Z"/>
</svg>